<svg width="429" height="299" viewBox="0 0 429 299" fill="none" xmlns="http://www.w3.org/2000/svg">
<path d="M279.773 298.835C273.228 298.534 264.726 297.721 261.071 297.05C258.835 296.636 256.09 296.176 254.972 296.026C251.748 295.595 236.591 290.923 232.61 289.138C231.939 288.837 230.016 288.016 228.341 287.309C221.515 284.442 212.261 279.449 206.589 275.571C200.401 271.334 196.51 268.521 195.815 267.777C195.701 267.659 194.152 266.378 192.363 264.931C189.326 262.475 179.787 253.197 177.519 250.489C175.01 247.496 170.391 241.938 170.115 241.568C169.944 241.345 169.379 240.613 168.854 239.942C165.712 235.909 160.707 227.741 155.779 218.597C155.478 218.036 154.766 217.308 154.197 216.979C153.25 216.43 153.063 216.45 152.038 217.214C151.01 217.983 147.338 223.098 144.407 227.842C143.029 230.07 135.913 241.032 134.783 242.662C131.827 246.935 129.51 250.448 128.306 252.489C125.692 256.921 125.281 257.559 120.366 264.817C112.698 276.144 107.737 283.662 102.301 292.208C100.846 294.493 99.2115 296.66 98.6626 297.022C97.7722 297.607 94.1536 297.697 65.1198 297.88C23.6446 298.14 1.30303 297.941 0.437018 297.311C-0.0915359 296.924 -0.124062 296.623 0.249991 295.631C0.656571 294.546 2.53904 291.484 3.11638 290.968C3.55142 290.582 10.0079 280.783 10.0242 280.49C10.0323 280.328 11.0284 278.819 12.2319 277.144C13.4354 275.469 15.021 273.091 15.7529 271.859C16.4847 270.627 19.1234 266.606 21.6117 262.914C29.4709 251.274 34.5246 243.634 37.0454 239.597C38.3872 237.446 40.4444 234.205 41.6195 232.392C42.7945 230.579 43.754 229.009 43.754 228.908C43.754 228.806 44.4452 227.68 45.2949 226.403C46.1406 225.13 47.4661 223.012 48.2426 221.703C49.0151 220.394 49.9909 218.747 50.4056 218.044C50.8204 217.34 52.0564 215.535 53.1501 214.031C54.2438 212.522 55.1504 211.152 55.1667 210.982C55.1789 210.807 55.8091 209.843 56.5694 208.839C57.3256 207.835 58.4315 206.184 59.0292 205.18C60.4278 202.826 63.7902 197.719 64.1155 197.455C64.2537 197.341 64.6034 196.804 64.8921 196.259C65.1767 195.714 65.5711 195.076 65.7703 194.836C65.9654 194.6 66.9046 193.218 67.8601 191.762C68.8156 190.307 69.9743 188.571 70.4378 187.9C72.9261 184.285 79.2281 174.507 79.6184 173.649C79.8664 173.1 80.1957 172.653 80.3462 172.653C80.4966 172.653 80.8381 172.182 81.0983 171.608C81.3626 171.031 83.0621 168.331 84.8795 165.611C92.3525 154.406 93.7633 151.8 93.7633 149.185C93.7633 147.47 93.438 146.726 91.153 143.168C85.3268 134.122 82.558 129.865 82.0701 129.218C81.7855 128.844 80.9723 127.625 80.2567 126.506C79.5371 125.388 78.854 124.38 78.732 124.27C78.3986 123.961 75.8738 119.773 75.8738 119.53C75.8738 119.351 73.1212 115.244 72.1089 113.907C71.9381 113.679 71.3486 112.809 70.7997 111.971C70.2508 111.134 69.458 109.946 69.0351 109.328C68.6163 108.715 67.0185 106.287 65.4857 103.941C63.9529 101.595 62.5868 99.5787 62.4485 99.4689C62.3144 99.3591 61.2451 97.619 60.0782 95.6064C56.5409 89.4996 53.7111 85.0109 52.2231 83.1447C50.9505 81.551 49.4177 79.266 47.1815 75.6312C46.7505 74.9318 44.8436 72.098 42.9408 69.3332C39.5825 64.4502 37.883 61.7993 35.1711 57.1846C34.4474 55.9568 32.9634 53.6677 31.8738 52.1024C30.7841 50.5371 29.048 47.9756 28.0153 46.4103C26.9785 44.8449 24.039 40.4539 21.4856 36.6524C18.9283 32.8508 16.5742 29.2851 16.257 28.7241C15.3869 27.1994 14.4762 25.7845 12.4027 22.7392C8.17829 16.5267 2.7098 8.0129 1.68522 6.04912C0.420754 3.62998 0.575256 2.45496 2.20157 2.14189C2.80331 2.02805 24.5228 1.96707 50.4626 2.01179C91.523 2.08091 97.7681 2.17035 98.7114 2.70297C99.7116 3.26405 105.713 11.9649 109.823 18.8117C111.421 21.4707 119.004 33.0948 123.313 39.4984C124.521 41.2874 126.713 44.5807 128.188 46.8169C129.664 49.053 131.319 51.521 131.864 52.3057C134.572 56.1845 138.45 62.0107 139.138 63.2345C140.333 65.361 140.674 65.922 141.805 67.6093C142.382 68.4713 144.26 71.3417 145.972 73.9886C149.351 79.2091 149.534 79.4611 151.189 81.246C152.059 82.1852 152.587 82.417 153.62 82.3153C155.075 82.1771 155.925 80.9899 159.828 73.6511C160.898 71.6385 161.93 69.7886 162.126 69.5447C162.317 69.2966 162.951 68.1989 163.532 67.1052C164.634 65.0276 172.152 54.9037 174.652 52.1268C188.448 36.8231 198.519 28.3581 212.639 20.2103C221.002 15.3883 227.361 12.1234 231.187 10.6923C232.862 10.0661 234.879 9.31396 235.66 9.02122C236.44 8.72848 238.363 8.00884 239.929 7.42336C243.677 6.02473 252.004 3.70316 254.566 3.34943C255.684 3.19087 258.156 2.71924 260.054 2.29639C267.539 0.637549 286.897 -0.492743 295.699 0.214705C304.136 0.893693 311.507 1.84102 314.934 2.68671C316.614 3.10549 319.456 3.76008 321.245 4.14227C329.453 5.90275 341.386 10.2288 350.896 14.8922C355.015 16.9129 367.948 24.3289 368.611 25.0486C368.725 25.1706 370.953 26.8741 373.571 28.8338C376.186 30.7936 378.564 32.6313 378.857 32.9159C379.146 33.2005 379.816 33.7291 380.341 34.095C381.581 34.9488 386.7 39.4862 388.533 41.3565C394.474 47.4064 396.324 49.5653 404.931 60.4373C405.195 60.7707 406.366 62.5108 407.537 64.2998C408.704 66.0887 409.81 67.7354 409.989 67.959C411.359 69.6707 420.653 87.7472 420.653 88.7068C420.653 88.8735 421.357 90.4916 422.215 92.3091C424.276 96.6635 424.861 98.1923 426.065 102.315C428.256 109.853 428.85 113.768 427.882 114.366C427.309 114.72 400.284 114.683 399.161 114.325C398.625 114.159 397.917 112.614 396.681 108.914C394.392 102.059 392.51 97.2531 390.278 92.5611C389.265 90.4388 388.294 88.3368 388.119 87.8855C387.94 87.4382 386.785 85.694 385.545 84.0189C384.309 82.3438 382.601 79.9978 381.748 78.8065C378.963 74.9237 375.051 70.0407 372.722 67.5443C371.469 66.1944 369.615 64.1819 368.611 63.0678C367.607 61.9538 365.956 60.3763 364.952 59.5631C363.948 58.754 362.573 57.5994 361.903 57.0057C359.8 55.1355 353.519 50.533 349.705 48.061C347.693 46.7599 345.574 45.3694 345.001 44.9751C341.822 42.7917 334.938 39.5391 327.343 36.628C325.778 36.0262 323.948 35.3025 323.277 35.0179C321.875 34.4243 316.012 32.6191 313.316 31.9523C311.064 31.3953 305.628 30.5943 299.696 29.9479C291.129 29.0087 266.954 29.9845 263.307 31.4156C262.97 31.5457 261.233 31.9848 259.444 32.3914C255.342 33.3225 251.553 34.343 250.5 34.7984C248.495 35.6725 244.149 37.2622 243.763 37.2622C242.612 37.2622 233.497 41.885 226.385 46.0728C221.771 48.7888 209.643 58.0385 205.166 62.2506C200.69 66.4628 192.164 77.0461 188.281 83.2057C187.647 84.2141 186.52 85.9827 185.776 87.1374C184.178 89.6297 180.393 97.1189 179.133 100.282C176.315 107.357 173.778 115.224 173.042 119.188C172.835 120.306 172.4 121.953 172.075 122.847C171.074 125.612 169.842 132.373 169.407 137.484C168.875 143.705 168.863 157.077 169.387 163.912C169.916 170.832 172.762 182.818 175.282 188.713C175.567 189.384 175.929 190.388 176.083 190.949C176.238 191.51 176.718 192.742 177.145 193.69C177.576 194.637 177.925 195.564 177.925 195.747C177.925 195.93 178.267 196.804 178.681 197.682C179.096 198.565 179.783 200.105 180.206 201.11C181.645 204.529 185.943 212.693 187.699 215.344C193.477 224.061 200.45 231.973 209.029 239.552C211.265 241.528 213.277 243.366 213.501 243.638C213.725 243.91 215.554 245.354 217.567 246.842C219.579 248.33 221.498 249.765 221.836 250.033C223.361 251.245 227.243 253.611 230.781 255.486C232.903 256.616 235.192 257.828 235.863 258.185C240.701 260.767 251.5 264.699 257.615 266.101C266.116 268.057 269.109 268.63 273.744 269.208C279.281 269.899 292.178 270.033 296.004 269.444C297.362 269.232 300.216 268.854 302.339 268.606C308.153 267.919 317.646 265.707 322.464 263.918C324.03 263.337 326.807 262.328 328.64 261.678C331.649 260.605 341.492 256.169 342.997 255.209C343.334 254.994 344.432 254.327 345.436 253.729C347.567 252.469 357.471 245.919 358.613 245.024C368.009 237.633 376.596 228.269 383.028 218.393C384.777 215.71 386.639 212.864 387.167 212.071C387.696 211.274 388.127 210.51 388.127 210.368C388.127 210.229 389.286 207.676 390.701 204.7C394.827 196.027 395.006 195.572 397.088 188.51C398.629 183.273 397.466 183.631 412.896 183.635C422.719 183.643 426.406 183.773 427.159 184.155C428.435 184.798 428.675 186.619 427.825 189.258C427.488 190.299 426.919 192.25 426.557 193.592C424.646 200.719 423.979 202.728 421.889 207.619C416.811 219.532 408.545 234.474 404.455 239.141C403.862 239.82 402.735 241.284 401.959 242.394C400.519 244.451 399.178 246.102 397.641 247.708C397.169 248.2 395.661 249.977 394.287 251.66C392.912 253.343 390.469 255.876 388.855 257.291C387.245 258.706 384.638 261.068 383.061 262.536C379.849 265.536 375.023 269.435 372.27 271.257C371.266 271.924 370.075 272.806 369.628 273.225C368.656 274.123 362.407 278.38 360.207 279.641C359.349 280.128 355.54 282.109 351.738 284.04C344.7 287.614 340.236 289.362 329.376 292.785C321.053 295.412 321.448 295.306 315.894 296.432C305.77 298.486 292.081 299.396 279.773 298.835ZM84.5461 268.549C85.3064 268.195 88.3558 264.349 88.8477 263.125C88.9413 262.898 90.039 261.157 91.2872 259.259C92.5395 257.36 94.4748 254.307 95.5929 252.473C100.854 243.837 102.114 241.861 103.314 240.349C104.737 238.556 110.514 229.814 113.32 225.216C114.304 223.602 118.219 217.523 122.021 211.709C128.164 202.313 133.279 194.373 136.511 189.209C138.202 186.509 147.387 172.499 147.781 172.019C147.977 171.779 148.367 171.153 148.652 170.62C148.936 170.088 149.335 169.462 149.542 169.222C150.371 168.262 154.441 161.212 156.458 157.256C158.507 153.223 158.601 152.902 158.572 149.938C158.552 147.726 158.283 146.193 157.641 144.599C155.649 139.676 154.909 138.435 143.171 120.408C141.13 117.277 138.625 113.252 137.601 111.463C135.832 108.377 134.962 107.003 130.152 99.6681C126.55 94.1834 120.199 84.3076 119.471 83.0675C119.191 82.5837 117.597 80.0873 115.938 77.5136C114.275 74.94 111.303 70.3131 109.335 67.2312C107.367 64.1453 104.981 60.4861 104.033 59.0996C101.765 55.7779 96.3044 47.5243 90.5188 38.6812C87.9533 34.7536 85.3878 31.0985 84.8226 30.5577C84.1596 29.9234 83.2783 29.568 82.3607 29.5648L68.4659 29.5169C60.0375 29.4884 52.9508 29.586 52.715 29.7283C52.0442 30.143 52.2231 32.5866 53.0037 33.6559C53.8778 34.8512 54.5162 35.8717 55.3903 37.4655C55.7562 38.1364 57.041 40.1693 58.2404 41.9826C59.4398 43.796 60.4238 45.3735 60.4238 45.4873C60.4238 45.6012 61.9322 48 63.778 50.8135C67.0307 55.7819 76.5528 70.4269 82.0131 78.8594C86.6807 86.0681 95.3652 99.3266 101.338 108.361C103.363 111.422 104.155 112.618 108.847 119.643C113.173 126.124 117.52 132.865 118.711 134.947C119.321 136.008 121.191 138.911 122.862 141.391C124.537 143.871 126.176 146.421 126.505 147.059C127.867 149.698 127.457 150.653 119.984 162.082C111.401 175.202 109.461 178.146 109.156 178.524C108.343 179.52 105.924 183.11 105.302 184.241C104.932 184.912 103.375 187.347 101.842 189.648C100.305 191.954 99.0488 193.93 99.0488 194.035C99.0488 194.145 97.9511 195.865 96.6093 197.861C95.2676 199.857 94.1699 201.585 94.1699 201.703C94.1699 201.817 93.1006 203.517 91.7954 205.476C88.2135 210.851 85.9041 214.531 84.8348 216.564C84.3063 217.568 83.3914 219.036 82.806 219.816C82.2205 220.597 81.2162 222.065 80.5738 223.069C79.9315 224.073 79.0248 225.448 78.5653 226.118C74.3369 232.237 72.3935 235.181 71.8446 236.287C71.4909 237.003 70.6004 238.304 69.8727 239.174C68.7708 240.487 63.0421 249.143 59.5415 254.782C59.0577 255.563 58.2526 256.848 57.7607 257.628C54.4714 262.82 53.8534 263.955 53.4225 265.577C52.5565 268.809 52.406 268.773 66.6363 269.053C79.7038 269.309 83.1353 269.212 84.5461 268.549ZM276.521 239.336C269.784 238.548 265.649 237.556 256.863 234.608C248.219 231.713 239.921 227.094 230.602 219.999C221.01 212.697 212.078 201.106 205.085 186.884C201.796 180.195 199.283 172.267 198.445 165.945C198.299 164.827 197.921 162.379 197.608 160.505C196.689 155.04 196.835 141.676 197.868 136.203C199.177 129.292 200.36 124.16 200.901 123.051C201.173 122.489 201.519 121.355 201.67 120.526C202.568 115.578 213.025 96.5334 217.868 91.0405C221.364 87.0723 227.162 81.2989 229.358 79.6034C237.908 72.9925 246.609 68.1135 255.785 64.7877C264.653 61.5757 269.15 60.5145 277.623 59.6282C286.876 58.6646 302.696 59.7746 308.95 61.8278C309.897 62.1408 311.316 62.523 312.097 62.6775C312.877 62.8361 314.068 63.198 314.739 63.4866C315.41 63.7712 317.972 64.7877 320.431 65.7391C330.275 69.5487 339.484 75.2368 346.668 81.9413C351.132 86.1128 356.91 92.5327 359.333 96.013C363.017 101.307 368.778 112.333 368.53 113.614C368.408 114.252 367.212 114.317 354.173 114.423C346.347 114.484 339.553 114.439 339.069 114.321C338.585 114.203 336.54 112.04 334.499 109.479C332.466 106.934 329.624 103.75 328.185 102.404C325.465 99.8552 320.322 95.6267 319.618 95.3543C319.395 95.269 318.146 94.5818 316.849 93.8256C311.653 90.8047 300.298 87.4992 292.784 86.8202C287.929 86.3811 279.639 86.6047 276.521 87.2553C270.438 88.5279 265.604 90.1379 259.81 92.8173C258.672 93.3458 257.558 93.7768 257.334 93.7768C257.111 93.7768 255.765 94.529 254.346 95.4478C247.011 100.184 237.705 109.507 233.984 115.834C231.557 119.961 229.61 123.717 228.914 125.62C225.324 135.411 224.536 139.728 224.519 149.681C224.507 157.232 224.584 158.09 225.576 161.676C226.166 163.802 226.963 166.725 227.345 168.181C227.731 169.636 228.296 171.185 228.601 171.625C228.906 172.068 229.154 172.686 229.154 172.999C229.154 173.812 234.135 183.643 235.867 186.257C238.977 190.941 246.507 198.15 252.533 202.208C256.249 204.712 262.929 207.965 267.169 209.331C273.297 211.307 276.655 211.791 285.457 211.969C292.938 212.116 294.536 212.035 298.468 211.274C303.408 210.319 307.949 209.103 309.921 208.205C310.625 207.883 311.324 207.619 311.474 207.619C311.621 207.619 312.755 207.156 313.995 206.586C320.419 203.651 328.921 196.332 334.279 189.124C336.28 186.436 337.918 184.651 338.752 184.257C339.854 183.733 342.265 183.631 353.519 183.631H365.825C366.536 183.631 367.2 183.988 367.591 184.582C368.139 185.424 368.144 185.733 367.631 187.188C366.786 189.587 363.346 196.06 361.37 198.967C360.435 200.345 359.658 201.622 359.646 201.805C359.626 202.114 357.511 204.842 352.889 210.526C351.018 212.823 345.31 218.373 341.98 221.126C339.252 223.382 331.929 228.013 327.343 230.388C322.777 232.75 318.943 234.222 313.113 235.86C311.771 236.234 309.767 236.82 308.661 237.157C303.034 238.881 298.618 239.418 288.921 239.544C283.668 239.613 278.086 239.519 276.521 239.336Z" fill="url(#paint0_linear_1070_533)"/>
<defs>
<linearGradient id="paint0_linear_1070_533" x1="214.165" y1="0" x2="214.165" y2="298.998" gradientUnits="userSpaceOnUse">
<stop stop-color="#0F766E"/>
<stop offset="1" stop-color="#09635C"/>
</linearGradient>
</defs>
</svg>
